<?xml version="1.0" encoding="UTF-8"?>
<svg id="Layer_1" xmlns="http://www.w3.org/2000/svg" version="1.1" viewBox="0 0 113.6 53.4">
  <!-- Generator: Adobe Illustrator 29.6.1, SVG Export Plug-In . SVG Version: 2.1.1 Build 9)  -->
  <defs>
    <style>
      .st0 {
        fill: #fff;
      }
    </style>
  </defs>
  <g id="LOGO_HORIZ">
    <g>
      <path class="st0" d="M4.4,41c-.7,0-1.2-.2-1.6-.7l-1.3-1.7c-.5-.5-.6-1-.5-1.7L6.6,5.3c.1-.6.4-1,.8-1.5l2.4-2c.5-.4.9-.6,1.6-.6h5.8c.7,0,1.2.2,1.6.7l1.3,1.7c.5.5.6,1,.5,1.7l-1.2,6.8c-.2.8-.6,1.2-1.4,1.2h-2.4c-.9,0-1.3-.5-1.2-1.4l.9-5.4-.8-1h-1.9l-1.3,1-5.1,29.2.8,1h1.9l1.3-1,1-5.6c.2-.8.6-1.2,1.4-1.2h2.4c.9,0,1.3.5,1.2,1.4l-1.2,6.7c-.1.6-.4,1-.8,1.5l-2.4,2c-.5.4-.9.6-1.6.6h-5.8Z"/>
      <path class="st0" d="M33.4,1.2c.9,0,1.4.5,1.3,1.4l-2,37.2c0,.8-.5,1.3-1.3,1.3h-2.6c-.9,0-1.3-.5-1.3-1.4l.7-8.9h-4.6l-2.5,9.2c-.2.7-.7,1.1-1.5,1.1h-2.4c-.9,0-1.4-.6-1.1-1.5L27.2,2.3c.2-.7.7-1.1,1.5-1.1h4.7ZM30.2,6.4l-5.4,20.1h3.8l1.6-20.1Z"/>
      <path class="st0" d="M53.3,11.5c-.2.8-.6,1.2-1.4,1.2h-2.4c-.9,0-1.3-.5-1.2-1.4l.8-4.9-.8-1h-1.8l-1.3,1-1.9,11.2.8,1h3.9c.7,0,1.2.2,1.6.7l1.4,1.7c.5.5.6,1,.5,1.7l-2.5,14.2c-.1.6-.4,1-.8,1.5l-2.4,2c-.5.4-.9.6-1.6.6h-6c-.7,0-1.2-.2-1.6-.7l-1.3-1.7c-.5-.5-.6-1-.5-1.7l1.1-6.2c.2-.8.6-1.2,1.4-1.2h2.4c.9,0,1.3.5,1.2,1.4l-.8,4.8.8,1h2.1l1.3-1,2-11.7-.8-1h-3.9c-.7,0-1.2-.2-1.6-.7l-1.4-1.7c-.5-.5-.6-1-.5-1.7l2.4-13.7c.1-.6.4-1,.8-1.5l2.4-2c.5-.4.9-.6,1.6-.6h5.8c.7,0,1.2.2,1.6.7l1.3,1.7c.5.5.6,1,.5,1.7l-1.1,6.2Z"/>
      <path class="st0" d="M67.3,1.2c.9,0,1.4.5,1.3,1.4l-2,37.2c0,.8-.5,1.3-1.3,1.3h-2.6c-.9,0-1.3-.5-1.3-1.4l.7-8.9h-4.6l-2.5,9.2c-.2.7-.7,1.1-1.5,1.1h-2.4c-.9,0-1.4-.6-1.1-1.5L61.2,2.3c.2-.7.7-1.1,1.5-1.1h4.7ZM64.2,6.4l-5.4,20.1h3.8l1.6-20.1Z"/>
      <path class="st0" d="M72.4,41c-.7,0-1.2-.2-1.6-.7l-1.3-1.7c-.5-.5-.6-1-.5-1.7l5.6-31.7c.1-.6.4-1,.8-1.5l2.4-2c.5-.4.9-.6,1.6-.6h5.8c.7,0,1.2.2,1.6.7l1.3,1.7c.5.5.6,1,.5,1.7l-1.2,6.8c-.2.8-.6,1.2-1.4,1.2h-2.4c-.9,0-1.3-.5-1.2-1.4l.9-5.4-.8-1h-1.9l-1.3,1-5.1,29.2.8,1h1.9l1.3-1,1-5.6c.2-.8.6-1.2,1.4-1.2h2.4c.9,0,1.3.5,1.2,1.4l-1.2,6.7c-.1.6-.4,1-.8,1.5l-2.4,2c-.5.4-.9.6-1.6.6h-5.8Z"/>
      <path class="st0" d="M101.4,1.2c.9,0,1.4.5,1.3,1.4l-2,37.2c0,.8-.5,1.3-1.3,1.3h-2.6c-.9,0-1.3-.5-1.3-1.4l.7-8.9h-4.6l-2.5,9.2c-.2.7-.7,1.1-1.5,1.1h-2.4c-.9,0-1.4-.6-1.1-1.5L95.2,2.3c.2-.7.7-1.1,1.5-1.1h4.7ZM98.2,6.4l-5.4,20.1h3.8l1.6-20.1Z"/>
    </g>
    <g>
      <path class="st0" d="M67.2,52.2v-8.3h5.8v1.9h-3.6v1.6h2.8v1.8h-2.8v2.9h-2.2Z"/>
      <path class="st0" d="M73.9,52.2v-8.3h2.2v8.3h-2.2Z"/>
      <path class="st0" d="M77.6,52.2v-8.3h2.2v6.3h3.8v1.9h-6Z"/>
      <path class="st0" d="M84.4,52.2l.4-8.3h2.1l2,3.6,2-3.6h2.1l.4,8.3h-2.2l-.2-4.8-1.4,2.8h-1.2l-1.6-2.8-.2,4.8h-2.1Z"/>
      <path class="st0" d="M94,51.2l1.3-1.6c.2.2.5.4.9.6.4.2.8.3,1.2.3s.4,0,.6-.1.3-.3.3-.5-.1-.4-.3-.5c-.2-.1-.5-.3-1-.4h-.5c-.3-.3-.7-.4-1-.6-.3-.2-.6-.4-.8-.7-.2-.3-.3-.7-.3-1.1s.1-1,.4-1.4c.2-.4.6-.7,1.1-1,.5-.2,1.1-.4,1.7-.4s1,0,1.4.2c.4.1.7.3,1,.4s.5.3.6.4l-1.1,1.4c-.3-.2-.6-.4-.9-.5-.3-.1-.6-.2-1-.2s-.4,0-.6.1c-.2,0-.3.3-.3.5s.1.4.3.6c.2.1.5.2.9.3h.4c.3.2.6.3.8.4.3.1.5.3.8.5.2.2.4.4.6.7.1.3.2.7.2,1.1s-.2,1-.5,1.3c-.3.4-.7.7-1.2.9-.5.2-1.1.3-1.7.3s-1.5-.1-2.1-.3-1-.5-1.4-.9Z"/>
    </g>
    <path class="st0" d="M112.5,6.3c0,2.2-1.8,4.1-4.1,4.1s-4.1-1.8-4.1-4.1,1.8-4,4.1-4,4.1,1.8,4.1,4ZM104.7,6.3c0,2,1.7,3.7,3.7,3.7s3.7-1.6,3.7-3.7c0-2-1.6-3.7-3.7-3.7s-3.7,1.6-3.7,3.7ZM107.7,6.6v2s-.4,0-.4,0v-4.6s1,0,1,0c1,0,1.5.5,1.5,1.3s-.6,1.3-1.5,1.4l1.9,1.9h0c0,0-.5,0-.5,0l-1.9-2ZM107.7,4.4v1.8h.5c.6,0,1.1-.4,1.1-1,0-.4-.3-.9-1.1-.9h-.5Z"/>
  </g>
</svg>